<?xml version="1.0" encoding="UTF-8" standalone="no"?>
<!DOCTYPE svg PUBLIC "-//W3C//DTD SVG 1.1//EN" "http://www.w3.org/Graphics/SVG/1.1/DTD/svg11.dtd">
<svg width="100%" height="100%" viewBox="0 0 74 75" version="1.1" xmlns="http://www.w3.org/2000/svg" xmlns:xlink="http://www.w3.org/1999/xlink" xml:space="preserve" xmlns:serif="http://www.serif.com/" style="fill-rule:evenodd;clip-rule:evenodd;stroke-linejoin:round;stroke-miterlimit:2;"><g><path d="M38.442,43.39c0.18,-0.03 0.357,-0.039 0.52,-0.09c2.341,-0.743 3.81,-2.354 4.556,-4.653c0.193,-0.596 0.056,-0.757 -0.594,-0.73c-1.899,0.08 -3.797,0.191 -5.639,0.726c-0.773,0.224 -1.41,0.659 -1.917,1.269c-0.709,0.852 -0.606,1.841 0.272,2.492c0.828,0.614 1.807,0.839 2.802,0.986m-2.266,-42.96c3.171,0 6.341,-0.008 9.511,0.002c6.861,0.023 13.722,0.053 20.582,0.087c1.088,0.005 2.176,-0.081 3.257,0.192c0.9,0.228 1.619,0.684 2.178,1.405c0.349,0.449 0.696,0.905 0.994,1.388c0.57,0.925 0.428,1.981 0.438,2.987c0.022,2.373 -0.045,4.746 -0.04,7.119c0.015,8.125 0.037,16.25 0.073,24.375c0.035,8.021 0.093,16.042 0.132,24.063c0.01,1.852 -0.006,3.705 -0.029,5.558c-0.003,0.247 -0.114,0.495 -0.189,0.739c-0.017,0.053 -0.127,0.131 -0.144,0.119c-0.064,-0.04 -0.132,-0.107 -0.151,-0.176c-0.036,-0.132 -0.051,-0.273 -0.053,-0.411c-0.034,-1.783 -0.08,-3.567 -0.091,-5.35c-0.018,-3.119 -0.007,-6.237 -0.02,-9.356c-0.028,-6.531 -0.067,-13.062 -0.096,-19.593c-0.037,-8.333 -0.066,-16.666 -0.107,-24.999c-0.006,-1.073 0.02,-2.157 -0.122,-3.215c-0.202,-1.51 -0.865,-2.829 -2.237,-3.614c-0.437,-0.25 -1.031,-0.304 -1.554,-0.31c-2.233,-0.026 -4.466,0.002 -6.699,0.005c-15.02,0.024 -30.041,0.048 -45.062,0.07c-3.102,0.004 -6.203,0.007 -9.304,-0.002c-0.97,-0.002 -1.939,-0.057 -2.909,-0.067c-1.165,-0.013 -1.814,0.505 -2.201,1.595c-0.388,1.091 -0.35,2.225 -0.379,3.339c-0.11,4.225 -0.171,8.452 -0.223,12.678c-0.052,4.209 -0.069,8.419 -0.105,12.628c-0.035,4.002 -0.071,8.004 -0.113,12.005c-0.019,1.854 -0.055,3.707 -0.083,5.56c-0.076,5.109 -0.151,10.219 -0.229,15.328c-0.019,1.195 -0.063,2.39 -0.066,3.585c-0.002,0.812 0.06,1.623 0.072,2.435c0.005,0.397 -0.064,0.795 -0.059,1.192c0.014,1.113 0.901,2.018 2.01,2.016c4.21,-0.01 8.42,-0.017 12.63,-0.063c3.343,-0.037 6.684,-0.16 10.027,-0.193c5.751,-0.057 11.503,-0.072 17.255,-0.108c0.813,-0.005 1.627,-0.018 2.439,-0.049c0.512,-0.02 0.694,-0.194 0.695,-0.706c0.002,-0.727 -0.018,-1.456 -0.079,-2.18c-0.119,-1.415 -0.197,-2.838 -0.427,-4.236c-0.457,-2.768 -0.427,-5.558 -0.461,-8.343c-0.028,-2.304 0.107,-4.609 0.588,-6.871c0.423,-1.989 0.992,-3.951 2.194,-5.618c0.661,-0.916 1.508,-1.714 2.346,-2.482c1.594,-1.461 3.484,-2.5 5.367,-3.529c1.154,-0.629 2.358,-1.166 3.538,-1.749c0.105,-0.052 0.205,-0.125 0.291,-0.205c0.045,-0.041 0.056,-0.12 0.082,-0.182c-0.075,-0.012 -0.156,-0.046 -0.226,-0.032c-3.07,0.609 -6.18,0.767 -9.297,0.803c-1.279,0.015 -2.56,-0.097 -3.841,-0.144c-1.209,-0.044 -1.285,0.028 -1.657,1.165c-0.74,2.263 -2.131,3.989 -4.304,5.012c-0.92,0.434 -1.873,0.639 -2.918,0.308c-0.746,-0.236 -1.504,-0.414 -2.154,-0.866c-0.994,-0.691 -1.597,-1.621 -1.413,-2.862c0.136,-0.916 0.669,-1.655 1.396,-2.242c1.036,-0.836 2.257,-1.209 3.547,-1.334c1.55,-0.151 3.108,-0.224 4.662,-0.333c0.477,-0.034 0.65,-0.189 0.73,-0.651c0.027,-0.153 0.036,-0.309 0.052,-0.465c0.14,-1.377 0.231,-2.761 0.435,-4.129c0.234,-1.572 0.556,-3.132 0.863,-4.693c0.164,-0.832 0.394,-1.65 0.563,-2.481c0.342,-1.676 1.109,-3.156 2.03,-4.575c1.017,-1.568 2.316,-2.843 3.906,-3.812c1.242,-0.756 2.574,-1.259 4.05,-1.331c0.604,-0.03 1.203,-0.147 1.807,-0.192c1.201,-0.089 2.389,0.057 3.567,0.265c0.385,0.068 0.763,0.229 1.116,0.406c0.153,0.077 0.233,0.301 0.346,0.458c-0.157,0.07 -0.314,0.202 -0.471,0.202c-1.161,-0.001 -2.321,-0.059 -3.481,-0.04c-1.21,0.02 -2.436,-0.002 -3.625,0.188c-1.605,0.257 -2.964,1.111 -4.18,2.178c-1.5,1.314 -2.601,2.93 -3.364,4.749c-0.403,0.963 -0.597,2.017 -0.854,3.038c-0.169,0.67 -0.252,1.361 -0.423,2.03c-0.512,2.003 -0.721,4.054 -0.994,6.094c-0.094,0.703 -0.127,1.414 -0.179,2.121c-0.032,0.446 0.091,0.605 0.542,0.645c0.863,0.077 1.726,0.15 2.591,0.19c2.776,0.13 5.545,-0.067 8.302,-0.326c1.144,-0.107 2.29,-0.348 3.445,-0.408c0.667,-0.036 1.343,0.078 2.015,0.134c0.3,0.025 0.455,0.238 0.533,0.5c0.079,0.263 -0.029,0.488 -0.238,0.64c-0.178,0.131 -0.378,0.243 -0.585,0.322c-1.809,0.696 -3.629,1.366 -5.338,2.299c-2.39,1.305 -4.711,2.701 -6.665,4.642c-1.036,1.028 -1.7,2.259 -2.23,3.585c-0.55,1.373 -0.849,2.818 -1.068,4.269c-0.212,1.401 -0.339,2.821 -0.403,4.238c-0.114,2.529 0.015,5.05 0.263,7.573c0.19,1.926 0.494,3.845 0.464,5.793c-0.016,1.053 0.081,2.108 0.121,3.162c0.006,0.172 -0.004,0.348 -0.034,0.518c-0.074,0.416 -0.238,0.565 -0.666,0.58c-0.398,0.014 -0.797,-0.003 -1.196,-0.001c-5.041,0.021 -10.082,0.038 -15.123,0.066c-4.609,0.026 -9.217,0.06 -13.825,0.099c-2.079,0.018 -4.158,0.055 -6.236,0.088c-1.715,0.027 -3.429,0.055 -5.143,0.094c-0.484,0.011 -0.967,0.062 -1.45,0.094c-0.464,0.031 -0.885,-0.077 -1.28,-0.335c-1.239,-0.809 -2.03,-1.895 -2.011,-3.417c0.017,-1.365 0.159,-2.729 0.177,-4.094c0.065,-4.954 0.102,-9.909 0.149,-14.863c0.031,-3.309 0.047,-6.618 0.095,-9.927c0.095,-6.564 0.209,-13.128 0.313,-19.693c0.036,-2.217 0.057,-4.434 0.097,-6.651c0.057,-3.134 0.121,-6.269 0.19,-9.403c0.021,-0.933 0.011,-1.872 0.119,-2.796c0.109,-0.921 0.432,-1.779 1.165,-2.43c0.591,-0.525 1.231,-0.848 2.051,-0.845c3.257,0.011 6.514,-0.012 9.77,-0.013c7.311,-0.003 14.622,-0.001 21.933,-0.001l0,-0.026" style="fill-rule:nonzero;"/></g></svg>