<?xml version="1.0" encoding="UTF-8" standalone="no"?>
<!DOCTYPE svg PUBLIC "-//W3C//DTD SVG 1.1//EN" "http://www.w3.org/Graphics/SVG/1.1/DTD/svg11.dtd">
<svg width="100%" height="100%" viewBox="0 0 51 79" version="1.1" xmlns="http://www.w3.org/2000/svg" xmlns:xlink="http://www.w3.org/1999/xlink" xml:space="preserve" xmlns:serif="http://www.serif.com/" style="fill-rule:evenodd;clip-rule:evenodd;stroke-linejoin:round;stroke-miterlimit:2;"><g><path d="M27.373,11.066c0,0.012 0,0.024 0.001,0.036c0.723,0 1.446,0.002 2.169,0c0.909,-0.003 1.106,-0.153 1.138,-1.078c0.044,-1.295 0.04,-2.592 0.036,-3.889c-0.002,-0.543 -0.128,-0.704 -0.696,-0.788c-0.639,-0.095 -1.289,-0.154 -1.935,-0.156c-2.518,-0.007 -5.037,0.012 -7.555,0.032c-0.373,0.003 -0.745,0.057 -1.117,0.094c-0.385,0.038 -0.559,0.235 -0.559,0.642c-0.001,1.095 -0.028,2.191 -0.053,3.286c-0.023,1.029 0.32,1.536 1.341,1.762c0.652,0.145 1.332,0.232 1.999,0.225c1.744,-0.02 3.487,-0.106 5.231,-0.166m-6.582,0.832c-0.024,0.158 -0.068,0.281 -0.056,0.399c0.099,0.96 -0.291,1.728 -1.015,2.295c-1.116,0.875 -2.23,1.77 -3.431,2.518c-2.95,1.838 -4.531,4.404 -4.508,7.916c0.028,4.218 0.046,8.437 0.064,12.655c0.032,7.963 0.062,15.926 0.093,23.889c0.001,0.299 -0.004,0.599 0.011,0.898c0.064,1.348 0.241,1.636 1.892,1.849c0.122,0.015 0.249,-0.003 0.374,-0.006c1.796,-0.047 3.593,-0.117 5.389,-0.134c4.968,-0.048 9.935,-0.071 14.903,-0.109c0.347,-0.003 0.698,-0.035 1.042,-0.085c1.239,-0.179 1.643,-0.64 1.636,-1.883c-0.015,-2.671 -0.049,-5.342 -0.059,-8.013c-0.038,-10.359 -0.07,-20.719 -0.105,-31.078c-0.002,-0.349 -0.028,-0.698 -0.03,-1.047c-0.006,-1.637 -0.976,-2.741 -2.144,-3.67c-0.796,-0.632 -1.717,-1.106 -2.582,-1.651c-0.633,-0.4 -1.283,-0.775 -1.893,-1.207c-0.949,-0.669 -1.539,-1.533 -1.457,-2.774c0.061,-0.908 -0.036,-0.982 -0.96,-0.968c-2.294,0.034 -4.588,0.081 -6.881,0.126c-0.071,0.001 -0.142,0.039 -0.283,0.08m-9.588,31.477c0,-6.365 0.003,-12.729 -0.002,-19.094c-0.001,-2.093 0.699,-3.906 2.122,-5.439c0.784,-0.845 1.656,-1.576 2.644,-2.187c0.996,-0.616 1.981,-1.264 2.895,-1.994c0.531,-0.424 1.007,-0.984 1.341,-1.576c0.474,-0.843 0.27,-1.301 -0.597,-1.693c-0.878,-0.397 -1.283,-1.059 -1.255,-2.013c0.038,-1.247 0.057,-2.494 0.098,-3.74c0.018,-0.578 0.173,-0.744 0.755,-0.816c0.345,-0.043 0.697,-0.049 1.046,-0.049c2.945,-0.001 5.891,-0.005 8.836,0.017c0.467,0.003 0.937,0.103 1.397,0.201c0.414,0.087 0.661,0.393 0.657,0.806c-0.015,1.671 -0.05,3.341 -0.096,5.011c-0.013,0.472 -0.363,0.669 -0.768,0.807c-0.711,0.242 -0.677,0.251 -0.708,0.986c-0.042,1.017 0.318,1.785 1.2,2.323c1.384,0.844 2.75,1.718 4.129,2.57c0.733,0.453 1.327,1.033 1.828,1.74c0.617,0.87 0.912,1.819 0.917,2.871c0.019,4.144 0.045,8.287 0.054,12.43c0.013,5.591 0.008,11.183 0.018,16.774c0.005,2.595 0.031,5.191 0.046,7.787c0.007,1.146 0.015,2.292 0.014,3.438c-0.001,0.929 -0.426,1.618 -1.32,1.869c-0.735,0.206 -1.516,0.328 -2.278,0.339c-5.766,0.08 -11.531,0.124 -17.297,0.179c-1.122,0.011 -2.245,0.015 -3.368,0.031c-1.359,0.019 -2.108,-0.669 -2.121,-2.035c-0.061,-6.514 -0.107,-13.029 -0.159,-19.543l-0.028,0" style="fill-rule:nonzero;"/><path d="M1.212,63.152c-0.08,0.005 -0.16,0.01 -0.239,0.015c-0.042,0.204 -0.107,0.407 -0.121,0.613c-0.129,1.931 0.01,3.826 0.57,5.698c0.91,3.045 2.781,5.127 5.832,6.115c1.494,0.484 2.978,1 4.469,1.494c0.104,0.035 0.23,0.004 0.397,0.004c-0.031,-0.161 -0.028,-0.289 -0.078,-0.389c-0.813,-1.628 -1.126,-3.396 -1.482,-5.157c-0.303,-1.498 -0.735,-2.958 -1.791,-4.141c-0.853,-0.956 -1.807,-1.787 -2.905,-2.453c-1.171,-0.71 -2.333,-1.437 -3.503,-2.149c-0.117,-0.072 -0.263,-0.096 -0.453,-0.163c0,0.206 -0.033,0.358 0.006,0.489c0.149,0.502 0.318,0.997 0.484,1.493c0.737,2.208 1.927,4.097 3.838,5.488c0.26,0.19 0.448,0.479 0.669,0.722c-0.041,0.057 -0.082,0.114 -0.124,0.171c-0.232,-0.107 -0.478,-0.192 -0.694,-0.326c-1.393,-0.858 -2.468,-2.038 -3.208,-3.477c-0.522,-1.015 -0.882,-2.113 -1.314,-3.174c-0.118,-0.291 -0.235,-0.582 -0.353,-0.873m0.186,-8.249c-0.028,0.217 -0.04,0.437 -0.086,0.65c-0.371,1.683 -0.315,3.354 0.016,5.042c0.147,0.747 0.494,1.316 1.09,1.709c0.789,0.52 1.645,0.939 2.445,1.445c1.072,0.679 2.159,1.346 3.165,2.115c1.724,1.319 2.688,3.134 3.042,5.251c0.36,2.154 0.909,4.239 1.864,6.211c0.086,0.179 0.047,0.419 0.067,0.631c-0.206,0.017 -0.435,0.102 -0.615,0.042c-1.82,-0.609 -3.625,-1.264 -5.448,-1.862c-3.811,-1.25 -5.744,-4.042 -6.436,-7.83c-0.393,-2.154 -0.469,-4.312 0.245,-6.439c0.104,-0.311 0.024,-0.688 0.007,-1.033c-0.063,-1.268 -0.159,-2.535 -0.195,-3.804c-0.023,-0.789 0.262,-1.503 0.839,-2.128" style="fill-rule:nonzero;"/><path d="M3.333,11.727c-0.068,-0.009 -0.136,-0.019 -0.205,-0.028c0,-0.206 -0.044,-0.425 0.009,-0.616c0.134,-0.478 0.251,-0.976 0.482,-1.409c1.374,-2.576 3.117,-4.864 5.39,-6.724c0.152,-0.124 0.283,-0.274 0.424,-0.412l-0.104,-0.153c-0.206,0.055 -0.414,0.101 -0.616,0.167c-1.323,0.433 -2.468,1.183 -3.564,2.016c-2.655,2.019 -3.917,4.636 -3.482,8.008c0.22,1.705 0.378,3.418 0.575,5.126c0.038,0.323 0.128,0.64 0.227,1.116c0.446,-0.647 0.742,-1.17 1.127,-1.616c1.17,-1.36 2.325,-2.739 3.578,-4.02c1.837,-1.878 2.817,-4.083 2.85,-6.703c0.013,-1.012 -0.075,-2.017 -0.348,-3.123c-0.304,0.192 -0.553,0.301 -0.74,0.475c-2.415,2.239 -4.47,4.738 -5.603,7.896m11.377,-11.181c-0.191,0.128 -0.369,0.285 -0.576,0.378c-0.591,0.266 -1.205,0.483 -1.789,0.764c-0.627,0.303 -1.228,0.66 -1.844,0.985c-0.396,0.208 -0.503,0.522 -0.393,0.938c0.076,0.29 0.147,0.581 0.207,0.874c0.509,2.501 0.138,4.871 -1.158,7.066c-0.388,0.657 -0.921,1.236 -1.427,1.816c-1.214,1.391 -2.467,2.747 -3.67,4.146c-0.42,0.489 -0.737,1.065 -1.104,1.6c-0.167,0.243 -0.304,0.57 -0.671,0.495c-0.404,-0.083 -0.417,-0.461 -0.45,-0.777c-0.094,-0.893 -0.156,-1.789 -0.251,-2.682c-0.077,-0.718 -0.126,-1.447 -0.29,-2.146c-0.302,-1.287 -0.302,-2.593 -0.178,-3.874c0.179,-1.841 1.001,-3.453 2.305,-4.764c1.641,-1.649 3.481,-3.095 5.854,-3.391c1.592,-0.198 2.888,-1.043 4.357,-1.475c0.318,-0.094 0.646,-0.155 0.969,-0.231c0.036,0.093 0.073,0.185 0.109,0.278" style="fill-rule:nonzero;"/><path d="M48.009,15.698c0.073,0.007 0.146,0.014 0.219,0.02c0.169,-0.745 0.392,-1.483 0.498,-2.237c0.39,-2.773 -0.23,-5.258 -2.231,-7.304c-1.044,-1.069 -2.305,-1.812 -3.669,-2.406c-1.302,-0.568 -2.581,-1.187 -3.874,-1.778c-0.147,-0.068 -0.311,-0.099 -0.57,-0.178c0.042,0.328 0.036,0.578 0.109,0.802c0.596,1.823 1.042,3.696 1.881,5.439c0.73,1.517 1.51,2.976 2.861,4.059c1.109,0.889 2.174,1.833 3.262,2.748c0.176,0.148 0.371,0.276 0.617,0.456c0.026,-0.194 0.056,-0.269 0.041,-0.335c-0.037,-0.17 -0.082,-0.34 -0.144,-0.502c-0.98,-2.531 -2.131,-4.955 -4.198,-6.819c-0.121,-0.109 -0.185,-0.283 -0.332,-0.516c0.759,0.156 0.995,0.294 1.541,0.923c1.71,1.973 2.871,4.247 3.668,6.72c0.099,0.305 0.214,0.605 0.321,0.908m0.013,5.07c-0.046,-0.225 -0.109,-0.448 -0.135,-0.675c-0.101,-0.866 -0.152,-1.738 -0.294,-2.597c-0.129,-0.786 -0.555,-1.435 -1.162,-1.957c-0.983,-0.844 -1.927,-1.743 -2.963,-2.517c-1.461,-1.091 -2.513,-2.458 -3.27,-4.105c-0.796,-1.731 -1.347,-3.536 -1.841,-5.368c-0.226,-0.84 -0.516,-1.663 -0.771,-2.496c-0.033,-0.108 -0.031,-0.227 -0.066,-0.502c0.295,0.132 0.502,0.181 0.656,0.3c1.303,1.006 2.808,1.598 4.334,2.154c1.948,0.71 3.767,1.653 5.047,3.34c1.688,2.225 2.261,4.743 1.648,7.484c-0.244,1.093 -0.596,2.162 -0.872,3.248c-0.072,0.283 -0.064,0.592 -0.052,0.888c0.029,0.672 0.1,1.343 0.12,2.016c0.007,0.257 -0.076,0.517 -0.118,0.776c-0.087,0.004 -0.174,0.008 -0.261,0.011" style="fill-rule:nonzero;"/><path d="M43.861,68.122c0.035,0.031 0.069,0.061 0.104,0.092c0.072,-0.017 0.15,-0.021 0.215,-0.052c0.158,-0.074 0.311,-0.158 0.464,-0.241c1.414,-0.769 2.507,-1.897 3.43,-3.184c1.56,-2.176 2.437,-4.609 2.186,-7.297c-0.152,-1.629 -0.614,-3.228 -0.947,-4.839c-0.031,-0.151 -0.133,-0.287 -0.255,-0.539c-0.389,0.487 -0.706,0.891 -1.032,1.289c-1.25,1.527 -2.485,3.065 -3.404,4.825c-1.164,2.228 -1.933,4.543 -1.612,7.112c0.08,0.639 0.072,1.289 0.116,1.933c0.011,0.152 0.071,0.301 0.109,0.452c0.122,-0.03 0.172,-0.036 0.216,-0.056c0.045,-0.02 0.087,-0.05 0.124,-0.083c1.934,-1.72 3.158,-3.834 3.57,-6.405c0.075,-0.473 0.203,-0.938 0.307,-1.407c0.08,0.015 0.16,0.031 0.24,0.046c0.086,1.054 -0.15,2.093 -0.478,3.078c-0.329,0.986 -0.75,1.97 -1.309,2.84c-0.568,0.885 -1.354,1.63 -2.044,2.436m-4.632,2.546c0.571,-0.375 1.14,-0.754 1.714,-1.124c0.231,-0.148 0.477,-0.272 0.711,-0.413c0.703,-0.425 1.05,-1.039 1.001,-1.871c-0.036,-0.622 0.017,-1.259 -0.099,-1.865c-0.39,-2.045 0.026,-3.971 0.767,-5.856c0.823,-2.093 2.108,-3.897 3.559,-5.595c0.648,-0.758 1.267,-1.542 1.899,-2.314c0.079,-0.097 0.147,-0.207 0.241,-0.284c0.251,-0.207 0.507,-0.172 0.583,0.142c0.614,2.537 1.578,5.029 1.248,7.707c-0.302,2.45 -1.21,4.667 -2.787,6.595c-1.124,1.374 -2.431,2.54 -4.091,3.186c-1.39,0.541 -2.821,0.97 -4.096,1.776c-0.154,0.098 -0.388,0.069 -0.585,0.098c-0.022,-0.061 -0.043,-0.121 -0.065,-0.182" style="fill-rule:nonzero;"/><path d="M21.798,33.485c-0.403,-0.915 -1.322,-1.406 -1.829,-2.222l0.114,-0.114c0.671,0.592 1.341,1.183 2.012,1.774c0.05,-0.032 0.101,-0.065 0.152,-0.097c-0.038,-0.232 -0.039,-0.478 -0.12,-0.693c-0.377,-0.994 -1.054,-1.73 -1.972,-2.266c-0.557,-0.325 -1.105,-0.673 -1.62,-1.061c-0.425,-0.321 -0.795,-0.716 -1.283,-1.164c-0.024,0.275 -0.074,0.42 -0.042,0.545c0.24,0.937 0.441,1.89 0.76,2.801c0.618,1.767 2.084,2.341 3.828,2.497m4.341,5.012c0.076,0.014 0.153,0.027 0.23,0.041c0.136,2.954 -0.523,5.78 -1.541,8.57c0.222,-0.031 0.385,-0.079 0.499,-0.182c0.407,-0.368 0.81,-0.742 1.192,-1.135c2.103,-2.161 2.705,-4.71 1.891,-7.591c-0.237,-0.837 -0.564,-1.649 -0.866,-2.467c-0.499,-1.356 -1.154,-2.659 -1.361,-4.112c-0.011,-0.076 -0.101,-0.14 -0.212,-0.285c-0.134,0.237 -0.236,0.397 -0.319,0.567c-0.284,0.583 -0.539,1.181 -0.844,1.754c-0.997,1.877 -1.903,3.789 -2.398,5.872c-0.414,1.743 -0.535,3.499 -0.198,5.266c0.238,1.246 0.527,2.483 0.798,3.723c0.008,0.035 0.071,0.057 0.152,0.118c0.119,-0.142 0.269,-0.271 0.357,-0.434c0.891,-1.653 1.699,-3.342 1.981,-5.223c0.195,-1.305 0.341,-2.618 0.515,-3.927c0.024,-0.187 0.082,-0.37 0.124,-0.555m-5.097,13.931c0.156,-0.237 0.292,-0.489 0.47,-0.708c0.796,-0.981 1.184,-2.041 0.815,-3.321c-0.227,-0.787 -0.329,-1.61 -0.535,-2.404c-0.772,-2.983 -0.468,-5.888 0.625,-8.729c0.306,-0.798 0.4,-1.587 0.228,-2.415c-0.08,-0.386 -0.298,-0.559 -0.704,-0.645c-0.703,-0.15 -1.389,-0.385 -2.072,-0.616c-1.359,-0.46 -2.094,-1.538 -2.471,-2.815c-0.336,-1.14 -0.468,-2.34 -0.669,-3.518c-0.029,-0.17 0.06,-0.361 0.117,-0.662c0.222,0.196 0.376,0.282 0.459,0.413c0.763,1.195 1.846,2.02 3.088,2.643c0.942,0.473 1.576,1.221 1.989,2.152c0.177,0.399 0.344,0.886 0.273,1.29c-0.132,0.75 0.267,1.275 0.517,2.069c0.236,-0.331 0.394,-0.506 0.501,-0.709c0.764,-1.456 1.589,-2.885 2.068,-4.476c0.058,-0.193 0.261,-0.343 0.488,-0.626c0.101,0.334 0.185,0.49 0.192,0.65c0.078,1.917 0.824,3.643 1.6,5.341c0.682,1.493 1.177,3.033 1.319,4.653c0.14,1.598 -0.251,3.126 -1.077,4.512c-0.921,1.547 -2.144,2.815 -3.681,3.762c-0.44,0.271 -0.747,0.625 -1.003,1.074c-0.52,0.907 -1.08,1.793 -1.656,2.666c-0.162,0.245 -0.438,0.414 -0.662,0.618c-0.073,-0.067 -0.146,-0.133 -0.219,-0.199" style="fill-rule:nonzero;"/></g></svg>