<?xml version="1.0" encoding="UTF-8" standalone="no"?>
<!DOCTYPE svg PUBLIC "-//W3C//DTD SVG 1.1//EN" "http://www.w3.org/Graphics/SVG/1.1/DTD/svg11.dtd">
<svg width="100%" height="100%" viewBox="0 0 57 91" version="1.1" xmlns="http://www.w3.org/2000/svg" xmlns:xlink="http://www.w3.org/1999/xlink" xml:space="preserve" xmlns:serif="http://www.serif.com/" style="fill-rule:evenodd;clip-rule:evenodd;stroke-linejoin:round;stroke-miterlimit:2;"><path d="M41.848,28.315c0.035,-0.204 -0.019,-0.321 -0.27,-0.24c-0.097,0.032 -0.201,0.039 -0.299,0.068c-0.141,0.041 -0.28,0.093 -0.42,0.14c0.123,0.102 0.233,0.227 0.37,0.303c0.428,0.237 0.577,0.169 0.619,-0.271m-7.774,-14.979c0.239,0.434 0.585,0.732 1.004,0.937c0.104,0.051 0.244,0.028 0.368,0.039c-0.038,-0.123 -0.039,-0.282 -0.119,-0.363c-0.341,-0.346 -0.766,-0.545 -1.253,-0.613m7.776,-0.379c-0.036,-0.004 -0.072,-0.009 -0.108,-0.014c-0.048,0.302 -0.11,0.602 -0.14,0.905c-0.083,0.815 -0.162,1.631 -0.216,2.448c-0.007,0.11 0.135,0.23 0.208,0.346c0.071,-0.079 0.186,-0.148 0.207,-0.239c0.265,-1.147 0.208,-2.297 0.049,-3.446m1.05,53.159l-0.012,0c0,0.275 -0.011,0.55 0.008,0.823c0.005,0.069 0.121,0.197 0.157,0.187c0.492,-0.133 1.022,-0.206 1.345,-0.672c0.277,-0.399 0.213,-0.759 -0.201,-0.999c-0.25,-0.144 -0.524,-0.261 -0.802,-0.338c-0.401,-0.111 -0.486,-0.03 -0.494,0.382c-0.005,0.206 -0.001,0.412 -0.001,0.617m-11.6,-56.406c0.028,-0.023 0.056,-0.046 0.085,-0.068c-0.377,-0.96 -0.848,-1.86 -1.64,-2.559c-0.375,-0.332 -0.832,-0.476 -1.315,-0.53c-0.361,-0.041 -0.536,0.186 -0.359,0.504c0.154,0.278 0.364,0.554 0.614,0.746c0.856,0.656 1.741,1.274 2.615,1.907m4.989,0.976c-0.072,0.206 -0.17,0.408 -0.207,0.621c-0.025,0.146 -0.009,0.334 0.065,0.457c0.527,0.88 1.098,1.735 1.607,2.625c0.645,1.126 1.404,2.148 2.425,2.962c0.12,0.096 0.244,0.188 0.374,0.269c0.127,0.08 0.252,0.069 0.231,-0.113c-0.024,-0.206 -0.03,-0.464 -0.154,-0.601c-0.63,-0.697 -1.344,-1.323 -1.939,-2.048c-1.016,-1.24 -2.12,-2.447 -2.402,-4.172m8.342,32.018c0.031,0.012 0.063,0.023 0.095,0.035c0.05,-0.084 0.1,-0.169 0.151,-0.253c0.502,-0.834 0.995,-1.674 1.512,-2.499c0.318,-0.507 0.67,-0.992 1.012,-1.484c0.119,-0.172 0.096,-0.252 -0.12,-0.318c-0.309,-0.095 -0.608,-0.227 -0.904,-0.358c-0.388,-0.173 -0.37,-0.175 -0.479,0.253c-0.227,0.893 -0.47,1.783 -0.714,2.672c-0.178,0.652 -0.368,1.301 -0.553,1.952m-2.888,-20.573c0.102,0.639 0.222,1.276 0.301,1.918c0.115,0.937 0.197,1.878 0.301,2.817c0.036,0.329 0.157,0.403 0.414,0.203c0.175,-0.137 0.356,-0.362 0.386,-0.569c0.078,-0.539 0.126,-1.093 0.092,-1.635c-0.071,-1.119 -0.734,-1.951 -1.494,-2.734m-5.47,34.792c-0.539,-0.085 -1.077,-0.179 -1.618,-0.251c-1.322,-0.177 -2.616,-0.564 -3.967,-0.528c-0.119,0.003 -0.255,-0.033 -0.355,0.012c-0.103,0.047 -0.172,0.169 -0.255,0.259c0.075,0.044 0.147,0.093 0.224,0.132c0.302,0.15 0.65,0.244 0.898,0.455c0.398,0.339 0.828,0.529 1.339,0.581c1.314,0.133 2.517,-0.349 3.734,-0.66m5.551,-47.547c0.04,-0.005 0.079,-0.01 0.118,-0.015c0.393,-1.401 0.795,-2.811 0.48,-4.286c-0.104,-0.488 -0.363,-0.96 -0.628,-1.392c-0.123,-0.201 -0.431,-0.406 -0.651,-0.402c-0.319,0.007 -0.336,0.383 -0.395,0.644c-0.034,0.149 -0.046,0.31 -0.028,0.461c0.055,0.459 0.098,0.923 0.203,1.371c0.285,1.21 0.599,2.413 0.901,3.619m3.075,47.378l0,0.034c-0.342,0 -0.691,0.041 -1.026,-0.01c-0.465,-0.071 -0.769,0.126 -1.065,0.442c-0.505,0.54 -0.417,1.191 0.246,1.525c0.515,0.259 1.107,0.273 1.601,0.086c0.747,-0.283 1.438,-0.728 1.962,-1.362c0.101,-0.122 0.183,-0.368 0.126,-0.481c-0.063,-0.124 -0.295,-0.214 -0.458,-0.224c-0.461,-0.029 -0.924,-0.01 -1.386,-0.01m-0.103,-0.475c1.03,0.055 2.057,0.039 3.057,-0.253c0.179,-0.052 0.357,-0.119 0.523,-0.204c0.205,-0.105 0.216,-0.251 0.026,-0.392c-0.082,-0.061 -0.169,-0.12 -0.262,-0.162c-0.746,-0.341 -1.477,-0.725 -2.247,-1.002c-0.834,-0.3 -1.706,-0.492 -2.558,-0.745c-0.424,-0.126 -0.434,-0.134 -0.446,0.292c-0.021,0.701 -0.006,1.406 -0.062,2.104c-0.025,0.305 0.085,0.362 0.326,0.362c0.548,0.001 1.096,0 1.643,0m-1.564,4.378c0.131,0.097 0.155,0.129 0.185,0.136c1.457,0.34 2.927,0.401 4.391,0.099c0.492,-0.101 0.987,-0.311 1.413,-0.579c0.597,-0.376 0.501,-1.214 -0.147,-1.477c-0.474,-0.192 -0.969,-0.378 -1.471,-0.442c-0.454,-0.058 -0.951,-0.173 -1.392,0.145c-0.969,0.699 -1.948,1.386 -2.979,2.118m-0.32,2.195l-0.005,0c0,0.463 0.009,0.926 -0.003,1.388c-0.007,0.268 0.09,0.374 0.362,0.343c1.315,-0.149 2.621,-0.339 3.782,-1.037c0.244,-0.147 0.463,-0.352 0.655,-0.565c0.088,-0.097 0.132,-0.287 0.11,-0.42c-0.088,-0.518 -0.726,-1.089 -1.244,-1.063c-1.12,0.056 -2.226,-0.024 -3.325,-0.23c-0.26,-0.048 -0.338,0.058 -0.334,0.299c0.007,0.428 0.002,0.857 0.002,1.285m4.832,-25.126c0.154,-0.137 0.319,-0.228 0.403,-0.367c1.523,-2.527 3.039,-5.057 4.546,-7.593c0.156,-0.263 0.247,-0.565 0.358,-0.853c0.029,-0.074 0.02,-0.163 0.029,-0.244c-0.095,0.007 -0.192,0.004 -0.283,0.025c-0.083,0.019 -0.16,0.061 -0.238,0.098c-1.216,0.578 -2.244,1.385 -3.034,2.485c-1.144,1.593 -2.125,3.284 -3.02,5.026c-0.078,0.153 -0.172,0.306 -0.206,0.47c-0.023,0.106 0.013,0.303 0.084,0.339c0.424,0.216 0.867,0.396 1.361,0.614m-9.156,-11.066c0.016,-0.074 0.035,-0.109 0.028,-0.139c-0.502,-2.337 -1.053,-4.655 -2.608,-6.572c-0.519,-0.642 -1.128,-1.156 -1.997,-1.224c-0.603,-0.046 -0.931,0.228 -1.016,0.829c-0.072,0.505 -0.03,1.014 0.239,1.446c0.478,0.768 0.942,1.561 1.532,2.239c1.025,1.176 2.184,2.227 3.443,3.157c0.12,0.089 0.244,0.17 0.379,0.264m17.055,3.464c0.033,-0.989 -0.593,-1.676 -1.526,-1.688c-0.25,-0.004 -0.391,0.051 -0.484,0.327c-0.454,1.339 -1.138,2.567 -1.886,3.76c-0.774,1.234 -1.553,2.465 -2.324,3.702c-0.245,0.393 -0.467,0.8 -0.704,1.197c-0.1,0.168 -0.077,0.259 0.135,0.239c0.119,-0.011 0.238,-0.033 0.354,-0.061c0.776,-0.193 1.461,-0.544 2.089,-1.056c1.367,-1.115 2.591,-2.345 3.519,-3.857c0.486,-0.792 0.793,-1.631 0.827,-2.563m-19.881,-11.42c-0.011,0.037 -0.022,0.074 -0.033,0.111c0.156,0.24 0.283,0.506 0.473,0.715c0.809,0.886 1.464,1.87 1.814,3.017c0.415,1.36 0.77,2.738 1.13,4.114c0.161,0.617 0.587,1.009 1.232,0.979c0.407,-0.018 0.814,-0.111 1.214,-0.204c0.09,-0.021 0.184,-0.174 0.21,-0.282c0.032,-0.128 -0.001,-0.273 -0.02,-0.409c-0.23,-1.7 -0.452,-3.4 -0.706,-5.097c-0.031,-0.209 -0.191,-0.436 -0.356,-0.582c-1.084,-0.965 -2.377,-1.552 -3.738,-2.004c-0.402,-0.134 -0.813,-0.24 -1.22,-0.358m-3.961,45.675c0.565,0.053 1.035,0.108 1.506,0.14c0.836,0.058 1.673,0.124 2.51,0.148c1.369,0.039 2.74,0.058 4.11,0.065c0.753,0.004 1.506,-0.034 2.26,-0.05c0.18,-0.004 0.293,-0.063 0.298,-0.264c0.025,-1.011 0.052,-2.022 0.078,-3.032c0.005,-0.205 -0.084,-0.23 -0.253,-0.144c-1.244,0.639 -2.6,0.729 -3.955,0.743c-1.051,0.011 -2.078,0.121 -3.111,0.314c-1.391,0.261 -2.366,1.145 -3.443,2.08m12.927,-30.453c-0.013,1.284 0.152,1.824 0.655,2.364c0.255,0.273 0.272,0.272 0.444,-0.074c0.855,-1.722 1.833,-3.371 2.907,-4.967c1.051,-1.561 2.422,-2.691 4.203,-3.309c0.188,-0.065 0.278,-0.149 0.276,-0.361c-0.012,-1.181 -0.903,-1.883 -2.032,-1.58c-0.937,0.252 -1.789,0.667 -2.568,1.258c-1.04,0.791 -1.834,1.798 -2.589,2.84c-0.872,1.201 -1.312,2.552 -1.296,3.829m-15.868,33.593c0.176,0.058 0.315,0.129 0.46,0.147c0.9,0.113 1.802,0.31 2.701,0.299c2.655,-0.035 5.311,-0.136 7.965,-0.251c0.696,-0.031 1.385,-0.208 2.079,-0.31c0.283,-0.041 0.419,-0.163 0.392,-0.474c-0.028,-0.306 0,-0.616 -0.004,-0.925c-0.004,-0.272 0.084,-0.676 -0.053,-0.782c-0.179,-0.137 -0.54,-0.035 -0.823,-0.04c-1.13,-0.02 -2.26,-0.049 -3.39,-0.06c-1.337,-0.012 -2.674,0.012 -4.009,-0.022c-0.803,-0.02 -1.607,-0.096 -2.404,-0.196c-0.444,-0.055 -0.768,0.084 -1.039,0.402c-0.62,0.723 -1.232,1.453 -1.875,2.212m0.678,-64.055c-1.199,-0.006 -2.303,0.697 -2.978,2.044c-0.537,1.073 -0.643,2.236 -0.546,3.417c0.042,0.506 0.203,0.992 0.543,1.369c0.62,0.686 1.242,1.379 1.93,1.993c0.726,0.647 1.63,0.874 2.597,0.727c0.49,-0.074 0.971,-0.214 1.452,-0.339c0.066,-0.018 0.168,-0.158 0.153,-0.183c-0.315,-0.543 -0.424,-1.215 -0.956,-1.623c-0.722,-0.554 -1.455,-1.092 -2.184,-1.638c-0.398,-0.298 -0.811,-0.579 -1.191,-0.9c-0.393,-0.334 -0.754,-0.709 -0.889,-1.234c-0.17,-0.659 0.243,-1.199 0.918,-1.154c0.717,0.048 1.407,0.24 1.905,0.791c0.422,0.468 0.83,0.965 1.147,1.507c0.362,0.619 0.632,1.294 0.913,1.957c0.148,0.347 0.347,0.64 0.677,0.811c0.44,0.228 0.887,0.448 1.35,0.62c0.171,0.064 0.401,0.01 0.593,-0.036c0.191,-0.046 0.245,-0.166 0.172,-0.39c-0.169,-0.519 -0.337,-1.047 -0.419,-1.584c-0.221,-1.449 -0.538,-2.837 -1.318,-4.129c-0.831,-1.378 -1.962,-2.045 -3.869,-2.026m12.96,12.849c0.118,-0.081 0.191,-0.119 0.25,-0.174c0.591,-0.549 1.186,-1.094 1.765,-1.655c0.819,-0.794 1.543,-1.663 1.973,-2.735c0.363,-0.906 0.725,-1.815 1.036,-2.74c0.314,-0.939 0.392,-1.922 0.248,-2.9c-0.166,-1.137 -0.423,-2.255 -0.846,-3.335c-0.322,-0.823 -0.903,-1.312 -1.727,-1.55c-0.296,-0.086 -0.604,-0.135 -0.895,-0.235c-1.115,-0.386 -2.239,-0.251 -3.355,-0.044c-0.345,0.065 -0.689,0.228 -0.99,0.416c-1.341,0.833 -2.373,1.968 -3.105,3.362c-0.154,0.294 -0.241,0.646 -0.272,0.979c-0.138,1.531 0.011,3.046 0.383,4.535c0.153,0.612 0.255,1.265 0.55,1.806c0.793,1.455 1.904,2.68 3.05,3.868c0.065,0.068 0.163,0.103 0.246,0.154c0.027,-0.093 0.064,-0.184 0.078,-0.279c0.179,-1.255 0.321,-2.516 0.547,-3.763c0.117,-0.647 0.087,-1.259 -0.071,-1.88c-0.306,-1.196 -0.638,-2.386 -0.912,-3.589c-0.152,-0.666 -0.251,-1.35 -0.294,-2.031c-0.024,-0.381 0.056,-0.794 0.191,-1.153c0.264,-0.703 0.918,-0.859 1.487,-0.376c0.216,0.184 0.4,0.427 0.543,0.674c0.585,1.009 0.655,2.125 0.546,3.244c-0.067,0.678 -0.257,1.345 -0.409,2.013c-0.234,1.022 -0.428,2.028 -0.169,3.095c0.264,1.084 0.315,2.206 0.245,3.326c-0.019,0.302 -0.057,0.603 -0.093,0.967m-30.949,73.916c0.064,-0.815 0.358,-2.064 0.691,-2.801c0.686,-1.515 1.363,-3.035 2.077,-4.537c0.264,-0.555 0.633,-1.06 0.936,-1.597c0.625,-1.105 1.235,-2.219 1.857,-3.325c0.316,-0.563 0.754,-1.011 1.277,-1.393c0.539,-0.395 1.055,-0.824 1.564,-1.258c1.102,-0.942 2.362,-1.591 3.74,-2.004c1.362,-0.408 2.525,-1.134 3.577,-2.071c0.229,-0.204 0.488,-0.378 0.748,-0.544c0.835,-0.536 1.5,-1.253 2.139,-1.995c0.235,-0.272 0.197,-0.315 -0.174,-0.402c-0.481,-0.114 -0.953,-0.263 -1.435,-0.375c-0.131,-0.031 -0.312,-0.03 -0.415,0.039c-0.242,0.159 -0.465,0.354 -0.669,0.561c-1.319,1.34 -2.898,2.242 -4.688,2.779c-0.374,0.112 -0.77,0.175 -1.16,0.209c-0.872,0.076 -1.747,0.111 -2.62,0.178c-1.064,0.082 -2.09,-0.051 -3.062,-0.507c-0.082,-0.039 -0.148,-0.114 -0.222,-0.172c0.091,-0.067 0.182,-0.191 0.274,-0.192c0.271,-0.004 0.552,0.006 0.813,0.074c1.031,0.268 2.065,0.253 3.148,0.001c-0.338,-0.157 -0.677,-0.314 -1.015,-0.473c-0.217,-0.102 -0.438,-0.199 -0.645,-0.319c-0.053,-0.03 -0.08,-0.14 -0.078,-0.212c0.001,-0.032 0.107,-0.085 0.165,-0.083c0.099,0.002 0.207,0.021 0.296,0.065c0.644,0.319 1.282,0.649 1.927,0.967c0.118,0.058 0.255,0.1 0.386,0.105c0.658,0.024 1.29,-0.09 1.917,-0.311c1.666,-0.587 3.109,-1.507 4.361,-2.751c0.313,-0.311 0.727,-0.518 1.057,-0.814c0.354,-0.317 0.672,-0.675 0.991,-1.028c0.171,-0.19 0.3,-0.419 0.469,-0.611c0.96,-1.088 2.085,-1.993 3.244,-2.85c1.33,-0.983 2.892,-1.189 4.49,-1.253c1.045,-0.042 2.094,-0.059 3.131,-0.181c1.175,-0.138 2.161,-0.744 3.059,-1.49c0.049,-0.04 0.08,-0.099 0.131,-0.164c-1.481,-0.084 -2.505,-1.292 -1.175,-2.784c-0.721,0 -1.364,-0.02 -2.004,0.004c-0.993,0.038 -1.992,0.039 -2.96,0.325c-0.262,0.077 -0.527,0.148 -0.792,0.215c-1.046,0.263 -2.084,0.566 -3.142,0.765c-0.509,0.095 -1.057,0.013 -1.583,-0.031c-0.477,-0.04 -0.873,-0.275 -1.217,-0.612c-0.483,-0.472 -0.978,-0.544 -1.593,-0.278c-0.204,0.088 -0.416,0.162 -0.63,0.222c-0.064,0.018 -0.147,-0.029 -0.221,-0.047c0.048,-0.064 0.081,-0.15 0.144,-0.19c0.287,-0.179 0.59,-0.334 0.87,-0.524c0.083,-0.057 0.108,-0.199 0.16,-0.302c-0.108,-0.032 -0.216,-0.064 -0.324,-0.094c-0.016,-0.005 -0.035,0.003 -0.052,-0.001c-0.172,-0.039 -0.344,-0.079 -0.516,-0.118c0.152,-0.117 0.287,-0.282 0.459,-0.34c0.68,-0.232 0.755,-0.349 0.552,-1.061c-0.056,-0.196 -0.138,-0.384 -0.199,-0.578c-0.026,-0.084 -0.03,-0.174 -0.045,-0.261c0.111,-0.003 0.255,-0.052 0.325,-0.001c0.116,0.086 0.231,0.225 0.262,0.361c0.08,0.347 0.148,0.705 0.153,1.059c0.003,0.256 0.028,0.384 0.32,0.373c1.407,-0.056 2.747,0.393 4.124,0.564c0.746,0.093 1.499,0.186 2.248,0.182c1.682,-0.01 3.363,-0.089 5.045,-0.121c0.291,-0.005 0.366,-0.073 0.358,-0.374c-0.02,-0.738 0.005,-1.477 0.032,-2.214c0.009,-0.269 -0.078,-0.418 -0.345,-0.471c-0.32,-0.062 -0.633,-0.17 -0.955,-0.204c-2.613,-0.277 -5.184,-0.796 -7.76,-1.293c-0.514,-0.099 -1.053,-0.069 -1.58,-0.1c-0.36,-0.021 -0.72,-0.038 -1.078,-0.07c-1.581,-0.143 -3.156,-0.103 -4.722,0.155c-0.809,0.134 -1.613,0.301 -2.414,0.478c-1.275,0.283 -2.209,1.088 -2.977,2.084c-0.787,1.019 -1.431,2.129 -2.022,3.28c-0.563,1.094 -1.214,2.156 -1.941,3.149c-1.641,2.243 -3.36,4.429 -5.032,6.65c-0.329,0.437 -0.609,0.914 -0.884,1.388c-0.732,1.261 -1.463,2.522 -2.169,3.798c-0.996,1.801 -1.937,3.634 -2.96,5.421c-1.634,2.853 -3.037,5.804 -4.029,8.944c-0.222,0.702 -0.459,1.401 -0.636,2.115c-0.101,0.411 -0.132,0.849 -0.129,1.274l-0.381,0.001c-0.016,-0.236 0.005,-0.887 0.064,-1.116c0.2,-0.778 0.401,-1.558 0.646,-2.323c0.749,-2.34 1.603,-4.637 2.794,-6.796c0.488,-0.886 0.959,-1.783 1.444,-2.671c1.355,-2.485 2.721,-4.964 4.068,-7.453c1.166,-2.155 2.673,-4.07 4.164,-5.997c0.924,-1.195 1.899,-2.351 2.774,-3.579c0.665,-0.934 1.28,-1.918 1.787,-2.944c0.574,-1.162 1.235,-2.259 2.017,-3.282c0.86,-1.125 1.892,-2.042 3.33,-2.364c0.784,-0.175 1.566,-0.371 2.359,-0.494c2.477,-0.382 4.96,-0.333 7.431,0.037c1.236,0.186 2.452,0.504 3.686,0.708c1.725,0.286 3.458,0.517 5.186,0.781c0.286,0.044 0.265,-0.127 0.268,-0.302c0.012,-0.653 0.016,-1.305 0.038,-1.957c0.02,-0.566 0.019,-1.137 0.111,-1.692c0.052,-0.313 0.026,-0.541 -0.135,-0.812c-0.393,-0.662 -0.845,-1.318 -0.913,-2.108c-0.1,-1.162 -0.177,-2.327 -0.194,-3.492c-0.009,-0.665 0.164,-1.33 0.18,-1.997c0.039,-1.664 0.031,-3.329 0.052,-4.994c0.016,-1.265 -0.334,-2.434 -0.873,-3.563c-0.56,-1.175 -1.094,-2.363 -1.65,-3.54c-0.047,-0.098 -0.179,-0.223 -0.272,-0.224c-0.93,-0.007 -1.725,-0.4 -2.517,-0.824c-1.769,-0.947 -3.356,-2.147 -4.796,-3.531c-0.55,-0.529 -1.052,-1.143 -1.436,-1.799c-0.691,-1.182 -0.589,-2.406 0.11,-3.57c0.432,-0.719 1.067,-1.066 1.928,-1.055c0.933,0.012 1.747,0.322 2.502,0.83c0.197,0.133 0.373,0.15 0.618,0.116c0.399,-0.056 0.834,-0.076 1.22,0.023c1.557,0.399 3.032,0.994 4.307,2.008c0.049,0.038 0.116,0.054 0.223,0.101c-0.048,-0.626 -0.081,-1.206 -0.146,-1.783c-0.011,-0.101 -0.143,-0.205 -0.241,-0.277c-0.358,-0.263 -0.742,-0.492 -1.086,-0.772c-1.145,-0.933 -1.857,-2.187 -2.552,-3.457c-0.337,-0.617 -0.728,-1.203 -1.091,-1.805c-0.129,-0.216 -0.264,-0.269 -0.496,-0.118c-0.402,0.262 -0.841,0.262 -1.286,0.101c-0.253,-0.091 -0.51,-0.172 -0.787,-0.265c0.182,0.553 0.182,0.554 0.639,0.606c0.78,0.09 1.452,0.412 1.993,0.976c0.334,0.349 0.357,0.897 0.1,1.237c-0.215,0.284 -0.637,0.367 -1.079,0.113c-0.41,-0.237 -0.895,-0.49 -1.121,-0.871c-0.476,-0.797 -1.054,-0.851 -1.799,-0.519c-0.047,0.021 -0.099,0.03 -0.149,0.043c-1.469,0.383 -2.81,0.12 -3.938,-0.902c-0.659,-0.597 -1.247,-1.275 -1.833,-1.946c-0.367,-0.419 -0.614,-0.936 -0.637,-1.494c-0.032,-0.784 -0.08,-1.588 0.047,-2.355c0.559,-3.362 3.366,-4.591 6.208,-3.681c0.832,0.266 1.455,0.783 1.883,1.512c0.733,1.246 1.342,2.544 1.506,4.014c0.075,0.67 0.243,1.33 0.369,1.994l0.121,0c0.032,-0.073 0.084,-0.144 0.092,-0.22c0.083,-0.781 0.193,-1.561 0.228,-2.345c0.032,-0.736 -0.041,-1.476 -0.022,-2.213c0.014,-0.59 0.186,-1.153 0.508,-1.655c0.334,-0.52 0.655,-1.052 1.033,-1.538c0.739,-0.951 1.693,-1.679 2.759,-2.192c1.241,-0.598 2.599,-0.563 3.937,-0.34c0.455,0.076 0.896,0.236 1.34,0.367c0.881,0.26 1.585,0.753 1.963,1.614c0.563,1.281 0.955,2.625 1.055,4.017c0.207,2.855 -0.872,5.335 -2.402,7.659c-0.084,0.127 -0.2,0.236 -0.311,0.344c-0.686,0.672 -1.409,1.31 -2.055,2.02c-0.644,0.708 -1.594,1.068 -2.107,1.912c-0.009,0.014 -0.032,0.019 -0.039,0.033c-0.072,0.142 -0.21,0.289 -0.2,0.425c0.051,0.753 0.13,1.505 0.223,2.254c0.018,0.137 0.132,0.271 0.224,0.39c0.43,0.555 0.883,1.093 1.298,1.659c0.857,1.169 0.928,2.482 0.606,3.835c-0.067,0.279 -0.25,0.661 -0.475,0.748c-0.619,0.24 -0.844,0.626 -0.923,1.267c-0.066,0.54 -0.495,0.691 -1.018,0.476c-0.284,-0.117 -0.555,-0.27 -0.82,-0.428c-0.284,-0.168 -0.554,-0.361 -0.91,-0.597c0.054,0.196 0.067,0.298 0.109,0.386c0.433,0.913 0.839,1.841 1.317,2.729c0.519,0.966 0.94,1.957 0.962,3.061c0.036,1.768 0.086,3.538 0.016,5.303c-0.075,1.883 -0.352,3.754 -0.131,5.651c0.11,0.942 0.519,1.718 1.012,2.598c0.065,-0.254 0.106,-0.411 0.145,-0.569c0.181,-0.732 0.361,-1.464 0.543,-2.195c0.07,-0.282 0.152,-0.561 0.218,-0.844c0.314,-1.351 0.619,-2.706 0.941,-4.056c0.202,-0.85 0.417,-1.697 0.649,-2.539c0.098,-0.353 0.037,-0.599 -0.25,-0.849c-0.596,-0.519 -0.909,-1.202 -0.967,-1.988c-0.086,-1.16 0.015,-2.304 0.455,-3.39c0.752,-1.858 2.016,-3.336 3.514,-4.63c0.849,-0.733 1.843,-1.188 2.923,-1.459c1.493,-0.374 2.564,0.33 2.75,1.857c0.05,0.412 0.172,0.515 0.565,0.556c1.3,0.134 2.031,1.088 1.924,2.388c-0.08,0.981 -0.419,1.856 -0.901,2.708c-0.92,1.629 -2.174,2.943 -3.622,4.104c-0.97,0.779 -2.043,1.237 -3.288,1.308c-0.149,0.009 -0.352,0.087 -0.427,0.201c-0.86,1.302 -1.722,2.603 -2.535,3.935c-0.419,0.687 -0.772,1.419 -1.094,2.157c-0.286,0.655 -0.554,1.332 -0.713,2.027c-0.376,1.634 -0.686,3.284 -0.715,4.971c-0.023,1.413 -0.013,1.382 1.355,1.725c0.844,0.212 1.667,0.514 2.486,0.815c0.529,0.195 1.035,0.455 1.546,0.698c0.351,0.167 0.701,0.39 0.678,0.823c-0.023,0.45 -0.442,0.575 -0.793,0.707c-0.239,0.091 -0.497,0.132 -0.746,0.196c-0.158,0.041 -0.289,0.073 -0.197,0.305c0.117,0.293 0.043,0.571 -0.17,0.812c-0.053,0.061 -0.082,0.143 -0.122,0.215c0.09,0.024 0.181,0.071 0.27,0.069c0.719,-0.018 1.389,0.128 2.016,0.499c0.947,0.561 0.976,1.716 0.037,2.273c-0.219,0.13 -0.459,0.232 -0.701,0.314c-0.393,0.134 -0.796,0.24 -1.183,0.355c0.208,0.26 0.419,0.486 0.585,0.741c0.291,0.449 0.293,0.727 -0.094,1.105c-0.338,0.329 -0.724,0.654 -1.151,0.839c-0.78,0.337 -1.605,0.57 -2.372,0.833c0.166,0.217 0.442,0.452 0.555,0.75c0.206,0.542 -0.135,1.226 -0.703,1.503c-0.306,0.15 -0.633,0.274 -0.965,0.347c-0.344,0.076 -0.426,0.253 -0.414,0.577c0.021,0.583 0.003,1.168 0,1.752c0,0.103 0.024,0.217 -0.012,0.306c-0.045,0.112 -0.141,0.204 -0.215,0.304c-0.075,-0.096 -0.178,-0.183 -0.215,-0.292c-0.036,-0.107 -0.005,-0.237 -0.003,-0.358c0.01,-0.549 0.024,-1.098 0.029,-1.648c0.004,-0.399 -0.006,-0.419 -0.385,-0.326c-1.093,0.267 -2.204,0.317 -3.322,0.334c-0.737,0.011 -1.473,0.1 -2.21,0.125c-1.801,0.063 -3.602,0.115 -5.403,0.152c-0.23,0.004 -0.381,0.033 -0.513,0.235c-0.677,1.037 -1.557,1.866 -2.613,2.514c-0.174,0.107 -0.326,0.251 -0.483,0.384c-1.067,0.91 -2.224,1.643 -3.577,2.082c-0.859,0.278 -1.707,0.64 -2.489,1.088c-0.754,0.432 -1.427,1.01 -2.119,1.546c-0.786,0.61 -1.545,1.233 -2.034,2.147c-0.97,1.814 -1.992,3.601 -3.002,5.393c-0.827,1.467 -1.552,2.982 -2.158,4.553c-0.192,0.499 -0.283,1.136 -0.329,1.816l-0.261,0Zm26.907,-62.894l-0.003,0.038l0.006,-0.024c-1.489,-1.113 -2.877,-2.339 -4.107,-3.735c-0.742,-0.843 -1.364,-1.766 -1.725,-2.841c-0.168,-0.5 -0.168,-1.014 -0.044,-1.525c0.129,-0.531 0.487,-0.854 1.063,-1.008c-0.572,-0.369 -1.134,-0.39 -1.703,-0.392c-0.59,-0.001 -1.024,0.271 -1.322,0.755c-0.494,0.806 -0.617,1.665 -0.29,2.566c0.275,0.76 0.742,1.397 1.344,1.922c0.893,0.778 1.768,1.589 2.734,2.266c0.95,0.666 1.993,1.206 3.02,1.754c0.298,0.158 0.682,0.153 1.027,0.224" style="fill-rule:nonzero;"/></svg>