<?xml version="1.0" encoding="UTF-8" standalone="no"?>
<!DOCTYPE svg PUBLIC "-//W3C//DTD SVG 1.1//EN" "http://www.w3.org/Graphics/SVG/1.1/DTD/svg11.dtd">
<svg width="100%" height="100%" viewBox="0 0 66 73" version="1.1" xmlns="http://www.w3.org/2000/svg" xmlns:xlink="http://www.w3.org/1999/xlink" xml:space="preserve" xmlns:serif="http://www.serif.com/" style="fill-rule:evenodd;clip-rule:evenodd;stroke-linejoin:round;stroke-miterlimit:2;"><path d="M33.02,7.333c-0.117,-0.482 -0.204,-0.975 -0.358,-1.445c-0.503,-1.536 -1.708,-2.636 -2.514,-3.986c-0.154,-0.259 -0.392,-0.256 -0.585,-0.009c-0.102,0.131 -0.193,0.274 -0.268,0.422c-0.527,1.046 -1.094,2.074 -1.56,3.146c-0.59,1.359 -0.789,2.789 -0.104,4.165c0.467,0.935 1.082,1.799 1.669,2.669c0.317,0.47 0.51,0.444 0.876,-0.004c0.573,-0.703 1.152,-1.402 1.72,-2.109c0.662,-0.826 1.073,-1.748 1.124,-2.849m-2.846,17.821c0,0.191 -0.011,0.383 0.002,0.573c0.037,0.557 0.209,0.684 0.738,0.46c0.813,-0.344 1.657,-0.653 2.399,-1.118c3.009,-1.885 5.549,-4.295 7.631,-7.166c0.978,-1.349 1.525,-2.912 1.856,-4.544c0.035,-0.173 -0.014,-0.364 -0.025,-0.547c-0.198,0.032 -0.407,0.033 -0.591,0.102c-0.469,0.177 -0.939,0.359 -1.386,0.584c-1.362,0.688 -2.81,1.26 -4.049,2.128c-2.585,1.81 -4.534,4.219 -5.938,7.056c-0.387,0.78 -0.666,1.585 -0.637,2.472m-13.888,-13.067c0.137,0.403 0.199,0.671 0.317,0.911c0.347,0.707 0.719,1.402 1.076,2.104c1.148,2.258 2.33,4.497 3.898,6.501c1.422,1.817 3.128,3.275 5.309,4.12c0.534,0.207 1.06,0.435 1.58,0.675c0.762,0.351 0.966,0.246 0.923,-0.569c-0.05,-0.967 -0.018,-1.922 -0.226,-2.9c-0.439,-2.071 -1.4,-3.751 -3.148,-4.929c-1.106,-0.745 -2.293,-1.37 -3.43,-2.069c-1.949,-1.2 -4.07,-2.121 -5.831,-3.624c-0.081,-0.069 -0.199,-0.096 -0.468,-0.22m11.097,27.819c0.383,0 0.765,0.008 1.147,-0.002c0.346,-0.01 0.605,-0.166 0.668,-0.528c0.106,-0.608 0.094,-1.17 -0.448,-1.63c-0.396,-0.337 -0.741,-0.744 -1.063,-1.155c-1.234,-1.579 -2.388,-3.224 -3.687,-4.747c-2.095,-2.457 -4.729,-4.186 -7.838,-5.047c-2.682,-0.742 -5.298,-1.602 -7.735,-2.96c-0.291,-0.163 -0.58,-0.338 -0.889,-0.458c-0.178,-0.07 -0.393,-0.042 -0.592,-0.059c0.061,0.196 0.082,0.418 0.191,0.582c0.293,0.436 0.622,0.847 0.938,1.266c0.963,1.277 1.945,2.539 2.884,3.832c0.827,1.14 1.6,2.32 2.41,3.474c1.838,2.619 4.383,4.339 7.203,5.743c2.157,1.074 4.403,1.689 6.811,1.689m4.019,0.031c0.275,-0.031 0.465,-0.051 0.655,-0.072c1.642,-0.189 3.241,-0.56 4.807,-1.093c4.379,-1.491 7.983,-4.07 10.727,-7.786c1.544,-2.091 2.951,-4.283 4.413,-6.434c0.085,-0.127 0.104,-0.299 0.154,-0.45c-0.152,-0.041 -0.302,-0.1 -0.457,-0.116c-0.114,-0.012 -0.236,0.028 -0.352,0.053c-1.541,0.322 -3.085,0.631 -4.621,0.972c-1.878,0.416 -3.646,1.127 -5.298,2.109c-2.679,1.592 -4.877,3.744 -6.939,6.047c-0.397,0.444 -0.796,0.897 -1.114,1.397c-0.813,1.277 -1.752,2.442 -2.851,3.481c-0.189,0.179 -0.38,0.374 -0.508,0.596c-0.314,0.543 -0.124,0.972 0.481,1.124c0.322,0.081 0.654,0.125 0.903,0.172m-1.818,23.089l-0.107,0c0,0.716 0.01,1.433 -0.003,2.149c-0.017,0.986 0.033,1.061 1.048,1.021c1.145,-0.044 2.287,-0.155 3.432,-0.19c8.143,-0.249 16.284,-0.258 24.419,0.241c0.857,0.052 1.711,0.158 2.568,0.224c0.619,0.048 1.239,0.092 1.859,0.095c0.241,0.002 0.484,-0.113 0.726,-0.175c-0.195,-0.176 -0.361,-0.429 -0.589,-0.516c-1.806,-0.686 -3.599,-1.417 -5.442,-1.986c-3.145,-0.971 -6.35,-1.732 -9.596,-2.284c-2.608,-0.444 -5.224,-0.861 -7.851,-1.161c-2.606,-0.298 -5.231,-0.439 -7.849,-0.639c-0.571,-0.044 -1.145,-0.064 -1.718,-0.07c-0.763,-0.008 -0.883,0.107 -0.894,0.856c-0.013,0.811 -0.003,1.623 -0.003,2.435m12.07,8.391c-0.689,0 -1.384,0.056 -2.067,-0.009c-5.526,-0.52 -11.066,-0.652 -16.609,-0.501c-2.456,0.067 -4.909,0.319 -7.362,0.503c-1.809,0.135 -3.617,0.289 -5.425,0.449c-1.188,0.106 -2.376,0.228 -3.562,0.36c-1.637,0.183 -3.272,0.385 -4.909,0.572c-0.284,0.033 -0.575,0.058 -0.858,0.032c-0.169,-0.015 -0.328,-0.136 -0.492,-0.21c0.108,-0.166 0.2,-0.345 0.328,-0.494c0.073,-0.084 0.203,-0.122 0.311,-0.173c2.25,-1.07 4.612,-1.834 7.008,-2.485c1.633,-0.443 3.292,-0.795 4.947,-1.153c0.885,-0.191 1.786,-0.31 2.681,-0.457c0.823,-0.134 1.644,-0.294 2.472,-0.386c3.227,-0.358 6.456,-0.693 9.684,-1.037c0.095,-0.011 0.19,-0.024 0.285,-0.035c0.445,-0.053 0.689,-0.282 0.692,-0.751c0.012,-1.744 0.04,-3.489 0.039,-5.233c-0.001,-0.58 -0.183,-0.731 -0.888,-0.761c-1.91,-0.082 -3.82,-0.183 -5.731,-0.204c-3.059,-0.034 -6.12,-0.076 -9.177,0.012c-2.553,0.073 -5.103,0.29 -7.649,0.514c-1.566,0.138 -3.12,0.412 -4.681,0.615c-0.118,0.015 -0.246,-0.052 -0.37,-0.081c0.094,-0.087 0.176,-0.229 0.284,-0.253c1.047,-0.231 2.09,-0.534 3.152,-0.643c2.731,-0.278 5.469,-0.625 8.208,-0.66c5.231,-0.068 10.464,0.063 15.697,0.111c0.215,0.002 0.43,0.018 0.644,0.004c0.331,-0.022 0.529,-0.214 0.569,-0.54c0.03,-0.236 0.034,-0.476 0.037,-0.715c0.066,-4.875 0.128,-9.75 0.194,-14.625c0.009,-0.621 0.059,-1.242 0.051,-1.863c-0.007,-0.536 -0.152,-0.659 -0.691,-0.703c-0.119,-0.01 -0.239,-0.01 -0.358,-0.005c-2.842,0.113 -5.482,-0.604 -7.993,-1.901c-2.069,-1.07 -4.103,-2.205 -5.667,-3.96c-1.044,-1.172 -1.948,-2.474 -2.871,-3.748c-1.849,-2.552 -3.669,-5.125 -5.5,-7.689c-0.097,-0.136 -0.227,-0.264 -0.276,-0.417c-0.075,-0.232 -0.093,-0.483 -0.136,-0.726c0.243,0.02 0.513,-0.021 0.722,0.074c0.477,0.217 0.92,0.506 1.382,0.756c1.873,1.011 3.776,1.956 5.824,2.568c1.28,0.382 2.606,0.636 3.853,1.104c2.766,1.037 5.25,2.549 7.121,4.89c1.251,1.564 2.406,3.205 3.605,4.81c0.171,0.229 0.338,0.465 0.536,0.67c0.087,0.09 0.293,0.189 0.36,0.148c0.117,-0.073 0.194,-0.243 0.238,-0.388c0.041,-0.132 0.019,-0.284 0.02,-0.428c0.016,-2.748 0.034,-5.496 0.046,-8.245c0.003,-0.772 -0.029,-0.766 -0.753,-0.946c-2.243,-0.558 -4.237,-1.595 -5.945,-3.165c-2.04,-1.877 -3.439,-4.214 -4.698,-6.636c-1.124,-2.161 -2.17,-4.364 -3.229,-6.558c-0.205,-0.425 -0.361,-0.888 -0.446,-1.351c-0.037,-0.2 0.115,-0.578 0.268,-0.632c0.173,-0.061 0.518,0.086 0.656,0.252c0.349,0.42 0.629,0.9 0.929,1.36c0.721,1.105 1.687,1.94 2.821,2.596c1.986,1.148 3.961,2.315 5.953,3.45c1.611,0.918 2.931,2.126 3.916,3.703c0.148,0.237 0.417,0.398 0.631,0.594c0.057,-0.27 0.158,-0.539 0.165,-0.811c0.03,-1.194 0.014,-2.39 0.051,-3.584c0.049,-1.594 -0.415,-2.982 -1.396,-4.258c-0.604,-0.786 -1.075,-1.691 -1.502,-2.592c-0.604,-1.278 -0.384,-2.615 0.141,-3.834c0.679,-1.575 1.533,-3.074 2.316,-4.604c0.065,-0.126 0.157,-0.241 0.254,-0.346c0.455,-0.493 0.754,-0.39 1.053,0.198c0.441,0.866 0.917,1.727 1.489,2.509c0.704,0.965 1.26,1.99 1.49,3.148c0.274,1.382 -0.106,2.656 -0.952,3.77c-0.534,0.703 -1.131,1.358 -1.688,2.044c-0.469,0.575 -0.673,1.221 -0.665,1.986c0.022,1.982 -0.025,3.966 -0.044,5.949c-0.002,0.215 -0.022,0.434 0.008,0.645c0.028,0.198 0.11,0.389 0.169,0.583c0.163,-0.147 0.382,-0.264 0.48,-0.446c1.308,-2.417 3.14,-4.391 5.262,-6.091c1.349,-1.081 2.927,-1.799 4.531,-2.434c0.935,-0.37 1.87,-0.719 2.646,-1.397c0.145,-0.128 0.423,-0.129 0.64,-0.128c0.042,0 0.15,0.297 0.115,0.426c-0.409,1.472 -0.787,2.955 -1.278,4.4c-0.641,1.888 -1.759,3.5 -3.199,4.867c-1.316,1.25 -2.65,2.485 -4.045,3.642c-1.333,1.106 -2.876,1.88 -4.519,2.441c-0.69,0.235 -0.827,0.395 -0.848,1.062c-0.093,2.866 -0.186,5.732 -0.256,8.598c-0.008,0.332 0.125,0.668 0.192,1.002c0.3,-0.21 0.675,-0.363 0.886,-0.641c0.792,-1.045 1.468,-2.183 2.302,-3.192c2.568,-3.108 5.311,-6.039 9.03,-7.813c2.215,-1.057 4.578,-1.625 6.987,-2.066c1.474,-0.27 2.91,-0.739 4.363,-1.121c0.161,-0.042 0.32,-0.128 0.48,-0.129c0.122,-0.001 0.302,0.07 0.351,0.165c0.049,0.094 -0.027,0.258 -0.06,0.388c-0.01,0.041 -0.057,0.076 -0.094,0.106c-1.832,1.505 -2.943,3.555 -4.172,5.516c-1.08,1.722 -2.201,3.409 -3.592,4.908c-1.773,1.91 -3.943,3.236 -6.25,4.369c-1.739,0.854 -3.509,1.637 -5.42,2.032c-1.284,0.265 -2.565,0.576 -3.896,0.479c-0.189,-0.014 -0.382,0.004 -0.572,0.023c-0.33,0.033 -0.523,0.212 -0.544,0.553c-0.008,0.119 -0.014,0.238 -0.016,0.358c-0.09,5.447 -0.183,10.895 -0.267,16.343c-0.021,1.327 -0.004,1.282 1.328,1.373c2.573,0.177 5.142,0.406 7.712,0.623c1.285,0.108 2.571,0.207 3.85,0.365c1.182,0.146 2.357,0.353 3.531,0.557c1.246,0.217 2.5,0.408 3.727,0.706c2.78,0.675 5.552,1.382 8.314,2.127c2.078,0.56 4.091,1.313 6.005,2.309c0.233,0.122 0.494,0.215 0.685,0.385c0.16,0.142 0.35,0.399 0.318,0.565c-0.028,0.145 -0.334,0.289 -0.539,0.335c-0.25,0.054 -0.523,0.014 -0.785,0c-2.291,-0.124 -4.582,-0.232 -6.871,-0.38c-6.302,-0.406 -12.612,-0.39 -18.92,-0.29c-3.294,0.052 -6.584,0.336 -9.875,0.537c-1.74,0.106 -3.479,0.243 -5.215,0.399c-1.14,0.103 -2.281,0.224 -3.41,0.405c-3.039,0.489 -6.099,0.893 -9.098,1.563c-2.531,0.565 -4.991,1.447 -7.474,2.215c-0.254,0.079 -0.451,0.34 -0.675,0.517c0.289,0.041 0.583,0.143 0.865,0.114c2.849,-0.293 5.696,-0.61 8.544,-0.914c1.115,-0.119 2.23,-0.246 3.347,-0.328c2.287,-0.168 4.574,-0.348 6.864,-0.451c3.844,-0.172 7.689,-0.224 11.531,0.123c1.855,0.167 3.718,0.23 5.577,0.354c0.902,0.06 1.802,0.15 2.703,0.227c0.005,0.054 0.01,0.107 0.014,0.161" style="fill-rule:nonzero;"/></svg>