<?xml version="1.0" encoding="UTF-8" standalone="no"?>
<!DOCTYPE svg PUBLIC "-//W3C//DTD SVG 1.1//EN" "http://www.w3.org/Graphics/SVG/1.1/DTD/svg11.dtd">
<svg width="100%" height="100%" viewBox="0 0 49 71" version="1.1" xmlns="http://www.w3.org/2000/svg" xmlns:xlink="http://www.w3.org/1999/xlink" xml:space="preserve" xmlns:serif="http://www.serif.com/" style="fill-rule:evenodd;clip-rule:evenodd;stroke-linejoin:round;stroke-miterlimit:2;"><path d="M30.661,49.328l0,0.004c-0.201,0.003 -0.402,0.012 -0.602,0.001c-0.807,-0.045 -1.438,0.271 -1.974,0.868c-0.87,0.971 -0.952,2.486 -0.18,3.536c0.428,0.582 0.991,0.952 1.654,1.202c1.332,0.502 3.048,0.094 3.923,-1.033c0.672,-0.864 0.846,-1.83 0.375,-2.822c-0.477,-1.006 -1.217,-1.73 -2.43,-1.755c-0.255,-0.006 -0.511,-0.001 -0.766,-0.001m-11.321,-0.57c0.771,0.047 1.514,-0.173 2.225,-0.61c1.522,-0.937 1.924,-3.076 0.497,-4.451c-0.75,-0.723 -1.623,-1.134 -2.678,-1.205c-1.002,-0.068 -1.916,0.112 -2.741,0.696c-1.817,1.288 -1.506,3.359 -0.373,4.386c0.859,0.777 1.827,1.251 3.07,1.184m28.697,16.364c-0.054,-0.526 -0.057,-1.063 -0.174,-1.574c-0.222,-0.975 -0.444,-1.96 -0.787,-2.896c-0.484,-1.317 -1.08,-2.593 -1.623,-3.888c-0.882,-2.103 -1.759,-4.208 -2.639,-6.312c-0.12,-0.286 -0.245,-0.57 -0.37,-0.853c-0.113,-0.255 -0.296,-0.414 -0.588,-0.415c-0.436,-0.001 -0.872,-0.002 -1.307,0.001c-1.735,0.013 -3.469,0.022 -5.204,0.043c-0.51,0.007 -1.02,0.042 -1.529,0.082c-0.291,0.022 -0.34,0.155 -0.161,0.395c0.152,0.205 0.335,0.389 0.472,0.603c1.092,1.703 0.623,3.44 -0.581,4.507c-1.526,1.352 -3.783,1.221 -5.192,0.256c-1.462,-1.002 -2.207,-3.068 -0.971,-4.916c0.138,-0.207 0.262,-0.424 0.392,-0.636c-0.253,-0.21 -0.555,-0.115 -0.832,-0.113c-4.801,0.037 -9.601,0.084 -14.402,0.126c-1.643,0.015 -3.286,0.021 -4.93,0.033c-0.182,0.001 -0.364,0.008 -0.546,0.019c-0.304,0.019 -0.498,0.163 -0.608,0.462c-0.207,0.565 -0.448,1.117 -0.664,1.678c-1.003,2.605 -2,5.213 -3.004,7.818c-0.662,1.719 -1.363,3.428 -1.634,5.266c-0.054,0.372 -0.057,0.765 -0.001,1.136c0.164,1.085 0.827,1.886 1.591,2.613c0.116,0.11 0.27,0.191 0.419,0.255c0.979,0.425 2.004,0.69 3.066,0.761c1.053,0.071 2.11,0.104 3.165,0.115c3.742,0.039 7.484,0.067 11.226,0.09c6.663,0.04 13.327,0.085 19.99,0.102c1.329,0.003 2.658,-0.097 3.986,-0.184c0.276,-0.018 0.562,-0.15 0.81,-0.29c0.646,-0.364 1.119,-0.917 1.597,-1.476c0.701,-0.817 1.078,-1.724 1.033,-2.808m-14.469,-16.567c2.197,0 4.826,0 7.455,-0.001c0.182,0 0.366,-0.002 0.546,-0.024c0.224,-0.028 0.312,-0.172 0.267,-0.39c-0.019,-0.088 -0.056,-0.173 -0.092,-0.257c-0.495,-1.176 -0.992,-2.353 -1.489,-3.529c-0.953,-2.251 -1.915,-4.497 -2.856,-6.753c-0.885,-2.121 -1.738,-4.256 -2.625,-6.376c-1.409,-3.366 -2.835,-6.725 -4.255,-10.086c-0.056,-0.134 -0.105,-0.279 -0.194,-0.389c-0.388,-0.483 -0.493,-1.052 -0.511,-1.642c-0.039,-1.222 -0.073,-2.444 -0.088,-3.666c-0.046,-3.742 -0.084,-7.484 -0.121,-11.225c-0.009,-0.931 -0.003,-1.863 -0.005,-2.794c0,-0.109 -0.004,-0.219 -0.001,-0.328c0.005,-0.251 -0.138,-0.365 -0.367,-0.387c-0.145,-0.014 -0.292,-0.015 -0.438,-0.013c-1.149,0.018 -2.298,0.038 -3.448,0.058c-2.244,0.039 -4.489,0.077 -6.733,0.121c-0.464,0.009 -0.5,0.056 -0.505,0.504c-0.012,0.931 -0.04,1.862 -0.035,2.793c0.03,4.782 0.059,9.565 0.111,14.348c0.009,0.805 -0.139,1.556 -0.464,2.283c-0.216,0.482 -0.44,0.963 -0.631,1.455c-0.449,1.156 -0.877,2.321 -1.32,3.479c-0.925,2.42 -1.853,4.839 -2.783,7.257c-0.616,1.6 -1.243,3.196 -1.857,4.797c-1.012,2.641 -2.019,5.284 -3.027,7.927c-0.332,0.869 -0.667,1.737 -0.988,2.611c-0.179,0.487 -0.115,0.563 0.419,0.574l0.055,0c2.739,-0.013 5.477,-0.026 8.216,-0.041c0.145,0 0.293,-0.003 0.435,-0.028c0.139,-0.024 0.182,-0.138 0.103,-0.244c-0.096,-0.128 -0.222,-0.236 -0.344,-0.342c-1.05,-0.909 -1.444,-2.081 -1.153,-3.401c0.267,-1.214 1.101,-2.043 2.248,-2.512c1.007,-0.412 2.053,-0.494 3.112,-0.206c1.474,0.4 2.521,1.276 2.996,2.759c0.361,1.129 -0.04,2.452 -0.955,3.223c-0.125,0.106 -0.255,0.211 -0.357,0.337c-0.119,0.148 -0.059,0.281 0.135,0.308c0.143,0.02 0.291,0.016 0.437,0.012c0.93,-0.029 1.859,-0.074 2.789,-0.089c2.628,-0.045 5.257,-0.079 8.318,-0.123m-16.574,21.809c-2.958,0 -5.916,0.034 -8.873,-0.015c-1.27,-0.022 -2.556,-0.001 -3.807,-0.327c-2.034,-0.529 -3.381,-1.742 -3.805,-3.848c-0.16,-0.796 -0.092,-1.6 0.102,-2.389c0.138,-0.567 0.279,-1.134 0.425,-1.699c0.036,-0.14 0.078,-0.285 0.15,-0.41c0.762,-1.341 1.191,-2.819 1.755,-4.242c0.637,-1.61 1.233,-3.237 1.852,-4.855c0.919,-2.403 1.839,-4.806 2.764,-7.206c0.624,-1.617 1.261,-3.229 1.887,-4.845c0.77,-1.99 1.536,-3.982 2.3,-5.975c0.94,-2.453 1.874,-4.909 2.816,-7.361c0.719,-1.874 1.444,-3.746 2.175,-5.615c0.159,-0.407 0.357,-0.799 0.528,-1.201c0.203,-0.476 0.282,-0.971 0.28,-1.493c-0.016,-3.889 -0.013,-7.778 -0.027,-11.667c-0.003,-1.168 -0.047,-2.335 -0.056,-3.503c-0.004,-0.492 0.048,-0.984 0.048,-1.476c-0.001,-0.308 -0.037,-0.619 -0.086,-0.924c-0.057,-0.358 -0.137,-0.425 -0.508,-0.432c-0.603,-0.011 -1.205,-0.002 -1.808,-0.004c-0.822,-0.002 -1.643,0.002 -2.465,-0.012c-0.253,-0.004 -0.509,-0.042 -0.757,-0.096c-0.083,-0.018 -0.145,-0.134 -0.217,-0.205c0.073,-0.071 0.137,-0.191 0.219,-0.204c0.341,-0.052 0.688,-0.093 1.033,-0.099c1.26,-0.022 2.519,-0.031 3.779,-0.04c5.514,-0.038 11.027,-0.075 16.54,-0.11c0.2,-0.001 0.402,0.004 0.599,0.036c0.072,0.012 0.184,0.111 0.182,0.168c-0.002,0.093 -0.062,0.232 -0.136,0.264c-0.143,0.064 -0.313,0.089 -0.473,0.092c-0.839,0.013 -1.679,0.013 -2.519,0.02c-0.146,0.001 -0.293,0.002 -0.438,0.019c-0.211,0.025 -0.324,0.145 -0.318,0.367c0.015,0.602 0.023,1.205 0.043,1.807c0.01,0.291 0.059,0.581 0.062,0.872c0.045,4.874 0.091,9.748 0.123,14.622c0.005,0.652 0.131,1.258 0.386,1.858c0.893,2.099 1.764,4.206 2.642,6.311c0.73,1.751 1.447,3.508 2.186,5.255c0.982,2.319 1.988,4.628 2.966,6.948c0.879,2.084 1.728,4.182 2.604,6.268c0.932,2.22 1.885,4.431 2.818,6.651c0.89,2.119 1.76,4.247 2.651,6.367c0.403,0.958 0.843,1.901 1.249,2.858c0.134,0.317 0.227,0.652 0.314,0.986c0.272,1.042 0.467,2.09 0.519,3.177c0.034,0.716 -0.041,1.383 -0.294,2.033c-0.137,0.352 -0.307,0.715 -0.551,0.996c-0.465,0.536 -0.992,1.018 -1.498,1.518c-0.654,0.647 -1.482,0.818 -2.358,0.848c-0.274,0.009 -0.548,0.019 -0.822,0.019c-5.259,-0.011 -10.517,-0.016 -15.776,-0.04c-3.468,-0.015 -6.936,-0.057 -10.405,-0.087l0,0.02Z" style="fill-rule:nonzero;"/></svg>