<?xml version="1.0" encoding="UTF-8" standalone="no"?>
<!DOCTYPE svg PUBLIC "-//W3C//DTD SVG 1.1//EN" "http://www.w3.org/Graphics/SVG/1.1/DTD/svg11.dtd">
<svg width="100%" height="100%" viewBox="0 0 71 73" version="1.1" xmlns="http://www.w3.org/2000/svg" xmlns:xlink="http://www.w3.org/1999/xlink" xml:space="preserve" xmlns:serif="http://www.serif.com/" style="fill-rule:evenodd;clip-rule:evenodd;stroke-linejoin:round;stroke-miterlimit:2;"><g><path d="M33.551,36.201c-0.047,-0.006 -0.093,-0.012 -0.139,-0.018c0.027,-1.555 -0.108,-3.092 -0.799,-4.505c-0.284,-0.583 -0.683,-1.141 -1.14,-1.601c-0.585,-0.588 -1.363,-0.771 -2.12,-0.345c-0.412,0.232 -0.786,0.601 -1.061,0.99c-1.368,1.936 -1.645,4.133 -1.439,6.429c0.124,1.376 0.57,2.669 1.021,3.964c0.641,1.845 1.42,3.62 2.537,5.231c0.159,0.23 0.423,0.389 0.639,0.581c0.154,-0.233 0.381,-0.447 0.45,-0.703c0.428,-1.587 0.883,-3.172 1.208,-4.782c0.35,-1.733 0.568,-3.493 0.843,-5.241m-31.831,1.2c-0.005,2.549 0.238,5.07 0.772,7.574c0.956,4.477 2.72,8.586 5.378,12.305c3.056,4.276 6.832,7.755 11.494,10.23c0.754,0.401 1.523,0.777 2.296,1.141c0.594,0.28 0.865,0.16 1.057,-0.46c0.995,-3.213 2.339,-6.281 3.748,-9.329c0.78,-1.686 1.397,-3.447 2.097,-5.17c0.522,-1.286 1.026,-2.581 1.604,-3.842c0.354,-0.772 0.363,-1.397 -0.168,-2.123c-1.478,-2.019 -2.428,-4.31 -3.268,-6.655c-0.465,-1.294 -0.875,-2.597 -0.998,-3.967c-0.23,-2.556 0.147,-4.979 1.593,-7.178c1.342,-2.04 3.982,-1.996 5.365,-0.328c0.482,0.58 0.871,1.273 1.154,1.975c0.68,1.684 0.978,3.477 0.799,5.272c-0.221,2.205 -0.583,4.402 -1.013,6.578c-0.267,1.355 -0.72,2.682 -1.188,3.986c-0.282,0.785 -0.184,1.325 0.39,1.954c1.595,1.748 3.571,2.853 5.774,3.566c0.694,0.225 1.481,0.219 2.226,0.221c1.669,0.004 3.235,-0.365 4.701,-1.238c3.775,-2.247 6.437,-5.398 7.859,-9.551c0.576,-1.68 0.805,-3.432 0.855,-5.225c0.236,-8.294 -5.07,-15.258 -11.865,-18.269c-2.817,-1.247 -5.768,-1.911 -8.856,-1.652c-4.699,0.394 -8.745,2.219 -11.982,5.708c-1.671,1.8 -2.813,3.905 -3.619,6.215c-0.997,2.859 -1.142,5.79 -0.659,8.737c0.434,2.642 1.516,5.064 2.949,7.326c0.239,0.378 0.49,0.761 0.648,1.175c0.071,0.185 -0.072,0.452 -0.119,0.682c-0.212,-0.052 -0.521,-0.031 -0.622,-0.166c-0.613,-0.818 -1.254,-1.629 -1.748,-2.519c-2.104,-3.795 -2.809,-7.915 -2.265,-12.165c0.726,-5.673 3.544,-10.184 8.369,-13.296c4.306,-2.777 9.066,-3.587 14.088,-2.659c6.372,1.177 11.213,4.605 14.41,10.234c1.961,3.452 2.97,7.199 2.604,11.198c-0.582,6.359 -3.498,11.359 -8.941,14.79c-0.917,0.578 -1.893,1.131 -2.919,1.445c-1.045,0.319 -2.2,0.525 -3.278,0.437c-3.002,-0.247 -5.663,-1.386 -7.83,-3.546c-0.136,-0.136 -0.269,-0.275 -0.409,-0.407c-0.517,-0.488 -0.748,-0.456 -1.028,0.215c-0.724,1.734 -1.402,3.487 -2.136,5.217c-1.052,2.478 -2.164,4.932 -3.2,7.417c-0.607,1.457 -1.128,2.952 -1.666,4.437c-0.262,0.721 -0.46,1.465 -0.723,2.186c-0.051,0.141 -0.263,0.306 -0.407,0.312c-0.313,0.013 -0.655,-0.007 -0.94,-0.123c-7.241,-2.94 -12.896,-7.726 -16.827,-14.507c-1.835,-3.167 -3.149,-6.542 -3.954,-10.112c-0.834,-3.698 -1.098,-7.42 -0.748,-11.211c0.735,-7.946 3.71,-14.924 8.87,-20.972c3.566,-4.179 7.899,-7.376 12.894,-9.652c4.291,-1.956 8.796,-3.015 13.529,-3.125c4.27,-0.1 8.402,0.592 12.41,2.013c5.958,2.112 10.863,5.716 14.805,10.645c2.45,3.064 4.398,6.422 5.733,10.112c0.719,1.988 1.262,4.03 1.611,6.126c0.384,2.307 0.625,4.621 0.561,6.959c-0.082,3.022 -0.481,5.998 -1.265,8.928c-1.767,6.602 -5.081,12.297 -9.948,17.08c-4.502,4.425 -9.825,7.445 -15.918,9.098c-0.805,0.218 -1.619,0.402 -2.436,0.568c-0.438,0.089 -0.89,0.124 -1.338,0.149c-0.667,0.037 -0.902,-0.098 -0.958,-0.494c-0.06,-0.428 0.166,-0.655 0.802,-0.796c2.254,-0.498 4.507,-1.007 6.672,-1.823c2.492,-0.938 4.83,-2.173 7.046,-3.652c4.619,-3.084 8.302,-7.048 11.078,-11.843c1.536,-2.654 2.728,-5.467 3.524,-8.442c0.861,-3.22 1.334,-6.494 1.299,-9.822c-0.027,-2.526 -0.373,-5.024 -0.942,-7.492c-1.109,-4.806 -3.142,-9.18 -6.182,-13.054c-3.615,-4.605 -8.192,-7.973 -13.593,-10.222c-4.872,-2.028 -9.956,-2.747 -15.198,-2.332c-2.259,0.179 -4.48,0.608 -6.667,1.242c-9.915,2.874 -16.929,9.166 -21.579,18.25c-1.112,2.174 -1.898,4.472 -2.517,6.838c-0.763,2.916 -1.172,5.866 -1.147,8.878" style="fill-rule:nonzero;"/></g></svg>